<svg width="64" height="64" viewBox="0 0 64 64" fill="none" xmlns="http://www.w3.org/2000/svg">
<path d="M18 16L16 18L20.4018 24.1625C20.7772 24.6881 21.3833 25 22.0292 25H22.1716C22.702 25 23.2107 25.2107 23.5858 25.5858L28.9358 30.9358L23.702 36.2448C23.1624 36.0855 22.5912 36 22 36C18.6863 36 16 38.6863 16 42C16 45.3137 18.6863 48 22 48C25.3137 48 28 45.3137 28 42C28 41.4088 27.9145 40.8376 27.7552 40.298L33.0642 35.0642L35 37L34.3909 38.8274C34.1513 39.546 34.3384 40.3384 34.874 40.874L41.4142 47.4142C41.8047 47.8047 42.3166 48 42.8284 48C43.3403 48 43.8521 47.8047 44.2426 47.4142L47.4142 44.2426C47.8047 43.8521 48 43.3403 48 42.8284C48 42.3166 47.8047 41.8047 47.4142 41.4142L40.874 34.874C40.3384 34.3384 39.546 34.1513 38.8274 34.3909L37 35L35.0785 33.0785L40.4383 27.7947C40.9362 27.9286 41.4598 28 42 28C45.3137 28 48 25.3137 48 22C48 21.4625 47.9293 20.9416 47.7968 20.4459L43.5147 24.7279L40 24L39.2721 20.4853L43.5541 16.2032C43.0584 16.0707 42.5375 16 42 16C38.6863 16 36 18.6863 36 22C36 22.5402 36.0714 23.0638 36.2053 23.5618L30.9215 28.9215L25.5858 23.5858C25.2107 23.2107 25 22.702 25 22.1716V22.0292C25 21.3833 24.6881 20.7772 24.1625 20.4018L18 16ZM37.2929 37.2929C37.6834 36.9024 38.3166 36.9024 38.7071 37.2929L44.5355 43.1213C44.9261 43.5118 44.9261 44.145 44.5355 44.5355C44.145 44.9261 43.5118 44.9261 43.1213 44.5355L37.2929 38.7071C36.9024 38.3166 36.9024 37.6834 37.2929 37.2929ZM22 38L22.9421 38.484L24 38.5359L24.5739 39.4261L25.4641 40L25.516 41.0579L26 42L25.516 42.9421L25.4641 44L24.5739 44.5738L24 45.4641L22.9421 45.5159L22 46L21.0579 45.5159L20 45.4641L19.4261 44.5738L18.5359 44L18.484 42.9421L18 42L18.484 41.0579L18.5359 40L19.4261 39.4261L20 38.5359L21.0579 38.484L22 38Z" fill="#45C4B0"/>
</svg>
