<svg width="70" height="70" viewBox="0 0 70 70" fill="none" xmlns="http://www.w3.org/2000/svg">
<path d="M24.1103 54.02C26.9403 54.02 29.2503 56.32 29.2503 59.15C29.2503 59.76 29.1003 60.32 28.9003 60.86H40.5303C40.3403 60.32 40.1803 59.75 40.1803 59.15C40.1803 56.32 42.4803 54.02 45.3203 54.02C46.8403 54.02 48.1703 54.71 49.1103 55.76V52.13H20.2803V55.83C21.2203 54.75 22.5703 54.02 24.1103 54.02Z" fill="#343A40"/>
<path d="M24.0996 55.45C22.0496 55.45 20.3896 57.11 20.3896 59.15C20.3896 61.19 22.0496 62.85 24.0996 62.85C26.1496 62.85 27.8096 61.2 27.8096 59.15C27.8096 57.1 26.1496 55.45 24.0996 55.45ZM24.1896 60.75C23.2796 60.75 22.5396 60.01 22.5396 59.11C22.5396 58.21 23.2896 57.47 24.1896 57.47C25.0896 57.47 25.8296 58.2 25.8296 59.11C25.8296 60.02 25.0996 60.75 24.1896 60.75Z" fill="#343A40"/>
<path d="M45.3096 55.45C43.2596 55.45 41.5996 57.11 41.5996 59.15C41.5996 61.19 43.2596 62.85 45.3096 62.85C47.3596 62.85 49.0196 61.2 49.0196 59.15C49.0196 57.1 47.3596 55.45 45.3096 55.45ZM45.3996 60.75C44.4896 60.75 43.7496 60.01 43.7496 59.11C43.7496 58.21 44.4996 57.47 45.3996 57.47C46.2996 57.47 47.0396 58.2 47.0396 59.11C47.0396 60.02 46.3096 60.75 45.3996 60.75Z" fill="#343A40"/>
<path d="M46.5402 42.8H43.7402V51.32H46.5402V42.8Z" fill="#343A40"/>
<path d="M46.8404 33.19H43.4404V41.71H46.8404V33.19Z" fill="#343A40"/>
<path d="M47.0702 23.5H43.2002V32.02H47.0702V23.5Z" fill="#343A40"/>
<path d="M20.6299 14.37V20.77H21.5699V14.37H38.4899V20.77H39.4199V14.37H47.8099V20.77H48.7399V6.91998H20.6299M39.4199 13.44V7.84998H47.8099V13.44H39.4199ZM21.5699 13.44V7.84998H38.4899V13.44H21.5699ZM20.6299 7.84998V13.44Z" fill="#343A40"/>
<path d="M48.7596 18.83H20.6396V22.43H48.7596V18.83Z" fill="#343A40"/>
</svg>
