<svg width="64" height="64" viewBox="0 0 64 64" fill="none" xmlns="http://www.w3.org/2000/svg">
<path d="M31.4515 16C31.8919 16 32.2838 16.2794 32.4274 16.6957L33.6113 20.129H43.8385C44.9787 20.129 45.903 21.0533 45.903 22.1935V36.645C45.903 37.7852 44.9787 38.7095 43.8385 38.7095H40.0183L42.7499 46.631C42.9357 47.1699 42.6495 47.7575 42.1105 47.9433C41.5716 48.1292 40.984 47.8429 40.7981 47.304L37.8345 38.7095H32.4838V44.903C32.4838 45.4731 32.0216 45.9352 31.4515 45.9352C30.8814 45.9352 30.4193 45.4731 30.4193 44.903V38.7095H25.0685L22.1049 47.304C21.919 47.8429 21.3315 48.1292 20.7925 47.9433C20.2536 47.7575 19.9673 47.1699 20.1532 46.631L22.8847 38.7095H19.0645C17.9243 38.7095 17 37.7852 17 36.645V22.1935C17 21.0533 17.9243 20.129 19.0645 20.129H29.2918L30.4757 16.6957C30.6192 16.2794 31.0111 16 31.4515 16ZM19.0645 22.1935V36.645H43.8385V22.1935H19.0645Z" fill="#45C4B0"/>
</svg>
