<svg width="70" height="70" viewBox="0 0 70 70" fill="none" xmlns="http://www.w3.org/2000/svg">
<path d="M36.6295 50.74L43.7195 51.11L44.2695 49.25C44.2695 49.25 43.7395 48.61 43.4795 48.34C43.6395 47.7 43.7595 47.21 43.7595 47.21L43.8295 46.67L42.9095 46.7L42.5495 46.35L42.5995 45.76L19.1495 24.92C19.7195 23.23 19.2595 22.37 19.2595 22.37V22.32C19.2595 22.15 19.2295 21.51 19.1795 20.77L20.2395 20.01C20.2795 19.9 20.2695 19.77 20.2095 19.66L20.8995 17.59L36.5995 11.11H40.9195C41.0495 11.11 41.1595 11.05 41.2495 10.96H42.8295L46.3195 16.87C46.3795 16.97 46.4795 17.02 46.5895 17.05V17.58C46.5895 17.83 46.7995 18.04 47.0495 18.04H53.0395C53.2895 18.04 53.4995 17.83 53.4995 17.58V8.08002C53.4995 7.83002 53.2895 7.62002 53.0395 7.62002H47.0495C46.7995 7.62002 46.5895 7.83002 46.5895 8.08002V13.17L43.5695 8.04002C43.5695 8.04002 43.5895 8.02002 43.5995 8.01002C43.6295 7.87002 43.5995 7.72002 43.5295 7.61002L42.7895 6.62002C42.6595 6.45002 42.4395 6.39002 42.2395 6.47002L16.6195 17.05C16.6195 17.05 16.5595 17.12 16.5295 17.16C16.3595 17.23 16.2295 17.36 16.2195 17.55V25.53L16.1495 26.5C16.1295 26.66 16.2095 26.81 16.3395 26.91L16.9195 27.32C17.0295 27.4 17.1695 27.43 17.2995 27.4C17.4295 27.37 17.5395 27.28 17.5995 27.16L39.1395 45.94L37.1695 45.89L36.4195 46.32L36.0195 46.09L35.5395 47.37L33.4495 49.06M18.9395 19.18C18.8495 19.21 18.7895 19.27 18.7295 19.35C18.7095 19.06 18.6895 18.75 18.6795 18.47L19.2595 18.24L18.9495 19.18H18.9395ZM41.2595 9.60002C41.1695 9.49002 41.0595 9.41002 40.9095 9.41002H40.6395L41.6795 8.98002L42.0395 9.60002H41.2695H41.2595ZM52.5795 8.53002V11.73H47.4995V8.53002H52.5795ZM47.8595 15.32L47.5095 14.72V12.54H52.5895V15.32H47.8695H47.8595Z" fill="#343A40"/>
<path d="M34.3898 53.39C34.3898 53.39 25.6298 53.39 25.2198 53.39C24.8098 53.39 25.5098 45.1 25.8598 45.1C26.2098 45.1 34.8898 45.08 34.8898 45.08L34.3898 53.4V53.39Z" fill="#343A40"/>
<path d="M46.0096 53.39C45.5796 53.4 34.3096 53.39 34.3096 53.39L34.8096 45.07C34.8096 45.07 44.8096 45.93 45.0096 45.92C45.2096 45.92 46.4296 53.38 45.9996 53.39H46.0096Z" fill="#343A40"/>
<path d="M26.3603 46.2C26.3603 46.2 25.9703 50.9 25.8203 52.23C25.6703 53.56 27.1403 48.81 27.2803 47.22C27.4103 45.64 26.4503 45.39 26.3603 46.2Z" fill="#343A40"/>
<path d="M49.6797 55.78C49.6497 55.13 49.5297 54.41 49.1497 54.41C48.7697 54.41 45.0897 54.4 39.4897 54.41L39.4597 50.78L36.2697 49.15V54.42C32.5597 54.42 27.3497 54.44 27.2297 54.47C27.0397 54.52 26.9497 55.3 26.9097 55.95C26.1497 56.7 25.6797 57.74 25.6797 58.89C25.6797 61.17 27.5297 63.03 29.8097 63.03C32.0897 63.03 33.8497 61.25 33.9297 59.04L37.9097 58.9L42.8397 59.06C42.9197 61.27 44.7197 63.04 46.9497 63.04C49.1797 63.04 51.0797 61.19 51.0797 58.9C51.0797 57.67 50.5397 56.57 49.6897 55.81L49.6797 55.78ZM29.9097 60.65C28.9097 60.65 28.0797 59.82 28.0797 58.82C28.0797 57.82 28.8997 56.98 29.9097 56.98C30.9197 56.98 31.7497 57.8 31.7497 58.82C31.7497 59.84 30.9297 60.65 29.9097 60.65ZM47.0397 60.65C46.0297 60.65 45.2097 59.82 45.2097 58.82C45.2097 57.82 46.0297 56.98 47.0397 56.98C48.0497 56.98 48.8697 57.8 48.8697 58.82C48.8697 59.84 48.0497 60.65 47.0397 60.65Z" fill="#343A40"/>
</svg>
