<svg width="70" height="70" viewBox="0 0 70 70" fill="none" xmlns="http://www.w3.org/2000/svg">
<path d="M36.7503 45.65L41.2503 38.95C41.3303 38.92 41.4003 38.86 41.4403 38.79L42.2503 37.6C42.3603 37.42 42.3603 37.19 42.2503 37.01L36.7403 28.86L42.1403 20.88C42.2603 20.71 42.2603 20.47 42.1403 20.29L41.3303 19.1C41.2303 18.95 41.0703 18.87 40.8903 18.87C40.7303 18.87 40.5603 18.96 40.4603 19.1L35.2903 26.73L30.0203 18.93C29.9103 18.78 29.7503 18.7 29.5803 18.7C29.4003 18.7 29.2403 18.78 29.1503 18.93L28.3403 20.13C28.2303 20.31 28.2303 20.55 28.3403 20.72L33.8603 28.86L29.3403 35.52C29.2703 35.56 29.2003 35.62 29.1603 35.68L28.3503 36.87C28.3103 36.94 28.3003 37.02 28.2903 37.09L28.2403 37.17C28.1103 37.34 28.1103 37.58 28.2403 37.76L29.0503 38.96C29.1503 39.11 29.3103 39.19 29.4803 39.19C29.4903 39.19 29.5003 39.19 29.5103 39.19L33.8703 45.63L28.2303 53.95C28.1003 54.12 28.1003 54.36 28.2303 54.54C28.3403 54.71 28.5503 54.8 28.7603 54.75L30.7303 54.36C30.8703 54.34 30.9803 54.27 31.0603 54.14L35.3303 47.8L40.5903 55.56C40.6903 55.71 40.8503 55.79 41.0203 55.79C41.1903 55.79 41.3503 55.71 41.4603 55.56L42.2703 54.36C42.3803 54.19 42.3803 53.96 42.2703 53.78L36.7703 45.67L36.7503 45.65ZM35.2903 43.49L31.0603 37.24L35.2903 30.98L39.5203 37.23L35.2903 43.49Z" fill="#343A40"/>
<path d="M39.5298 18.31H14.3398V20.23H39.5298V18.31Z" fill="#343A40"/>
<path d="M56.4305 17.84H37.7305V20.59H56.4305V17.84Z" fill="#343A40"/>
<path d="M32.8504 17.84H14.1504V20.59H32.8504V17.84Z" fill="#343A40"/>
<path d="M14.3398 6.72998V19.26H15.1798V13.46H26.8898V19.25H27.7298V13.46H43.0398V19.25H43.8898V13.46H55.2098V19.25H56.0598V6.72998H14.3398ZM15.1798 12.63V7.56998H26.8898V12.63H15.1798ZM27.7398 12.63V7.56998H43.0498V12.63H27.7398ZM43.8898 12.63V7.56998H55.2098V12.63H43.8898Z" fill="#343A40"/>
<path d="M24.6004 54.47C27.7004 54.47 30.2204 56.99 30.2204 60.09C30.2204 60.75 30.0604 61.37 29.8404 61.97H42.5604C42.3504 61.38 42.1804 60.76 42.1804 60.09C42.1804 57 44.7004 54.47 47.8004 54.47C49.4604 54.47 50.9204 55.23 51.9504 56.38V52.41H20.4004V56.45C21.4304 55.26 22.9004 54.47 24.5904 54.47H24.6004Z" fill="#343A40"/>
<path d="M47.5998 55.65C45.5198 55.65 43.8398 57.33 43.8398 59.4C43.8398 61.47 45.5198 63.15 47.5998 63.15C49.6798 63.15 51.3598 61.48 51.3598 59.4C51.3598 57.32 49.6698 55.65 47.5998 55.65ZM47.6798 61.02C46.7698 61.02 46.0198 60.26 46.0198 59.36C46.0198 58.46 46.7698 57.7 47.6798 57.7C48.5898 57.7 49.3498 58.44 49.3498 59.36C49.3498 60.26 48.6098 61.02 47.6798 61.02Z" fill="#343A40"/>
<path d="M24.5901 55.58C22.5101 55.58 20.8301 57.26 20.8301 59.33C20.8301 61.4 22.5101 63.08 24.5901 63.08C26.6701 63.08 28.3501 61.41 28.3501 59.33C28.3501 57.26 26.6601 55.58 24.5901 55.58ZM24.6801 60.95C23.7601 60.95 23.0101 60.19 23.0101 59.29C23.0101 58.39 23.7701 57.63 24.6801 57.63C25.5901 57.63 26.3401 58.37 26.3401 59.29C26.3401 60.21 25.6001 60.95 24.6801 60.95Z" fill="#343A40"/>
</svg>
