<?xml version="1.0" encoding="UTF-8"?>
<svg id="Camada_2" data-name="Camada 2" xmlns="http://www.w3.org/2000/svg" viewBox="0 0 265.57 320.75">
  <defs>
    <style>
      .cls-1 {
        fill: #52baac;
        stroke-width: 0px;
      }
    </style>
  </defs>
  <g id="logo_default_alt_svg">
    <path id="icon" class="cls-1" d="M242.35,248.48c-3.85-1.81-8.13-2.86-12.66-2.86h-1.6s-.05,0-.08,0-.05,0-.08,0h-64.99l16.61-16.61s.04-.07.06-.09l.63-.63c1.68-1.68,1.68-4.4,0-6.07l-34.34-34.34,35.71-35.71c1.45-1.45,1.57-3.64.51-5.31-.2-.64-.5-1.25-1.01-1.75l-35.02-35.02,34.42-34.42h46.56c2.37,0,4.29-1.92,4.29-4.29V4.29c0-2.37-1.92-4.29-4.29-4.29h-9.06c-2.37,0-4.29,1.92-4.29,4.29v21.16H52.79V4.29c0-2.37-1.92-4.29-4.29-4.29h-9.06c-2.37,0-4.29,1.92-4.29,4.29v67.08c0,2.37,1.92,4.29,4.29,4.29h47.28l34.42,34.42-35.21,35.21c-.1.1-.14.23-.23.34l-.46.46c-1.68,1.68-1.68,4.4,0,6.07l35.71,35.71-34.34,34.34c-1.68,1.68-1.68,4.4,0,6.07l.19.19c.17.27.29.55.52.79l16.36,16.36H37.65s-.05,0-.08,0c-20.71,0-37.56,16.85-37.56,37.57s16.85,37.56,37.56,37.56c12.41,0,23.4-6.08,30.24-15.38h129.95c6.84,9.3,17.83,15.38,30.24,15.38,20.71,0,37.56-16.85,37.56-37.56,0-15.63-9.6-29.06-23.22-34.7ZM37.56,302.7c-10.78,0-19.52-8.74-19.52-19.52s8.74-19.52,19.52-19.52,19.52,8.74,19.52,19.52-8.74,19.52-19.52,19.52ZM52.79,58.02v-14.93h160.94v14.93H52.79ZM111.67,75.67h43.9l-21.95,21.95-21.95-21.95ZM107.1,149.08l26.51-26.51,26.32,26.33-26.51,26.51-26.33-26.32ZM133.43,200.35l24.91,24.91-20.36,20.36h-9.34l-20.24-20.24,25.03-25.03ZM190.74,287.73h-115.91c.18-1.49.3-3,.3-4.54,0-7.32-2.14-14.14-5.77-19.92h126.85c-3.64,5.78-5.77,12.6-5.77,19.92,0,1.54.12,3.05.3,4.54ZM228,302.7c-10.78,0-19.52-8.74-19.52-19.52s8.74-19.52,19.52-19.52,19.52,8.74,19.52,19.52-8.74,19.52-19.52,19.52Z"/>
  </g>
</svg>