<svg width="70" height="70" viewBox="0 0 70 70" fill="none" xmlns="http://www.w3.org/2000/svg">
<path d="M31.2103 51.15C33.4303 51.08 31.1403 49.52 31.1403 49.52C31.1403 49.52 32.0003 48.76 31.4403 48.26C30.8803 47.76 28.1403 45.86 26.2903 45.16C26.2203 45.14 26.1803 45.12 26.1003 45.09C25.8803 44.82 25.5803 44.53 25.2003 44.34C25.2003 44.34 23.6803 43.83 21.8203 43.23L24.8003 38.2L24.5403 38.05L26.7203 34.37C26.7803 34.4 26.8403 34.43 26.8903 34.45C27.4503 34.61 27.6103 34.29 27.6103 33.88C27.6103 33.55 28.0503 31.29 28.2003 30.53L45.3703 11.28L45.2203 11.14L45.2603 11.1H46.8103L50.4703 17.32C50.5303 17.42 50.6403 17.48 50.7603 17.51V18.06C50.7603 18.32 50.9803 18.54 51.2403 18.54H57.5103C57.7703 18.54 57.9903 18.32 57.9903 18.06V8.14C57.9903 7.87 57.7703 7.66 57.5103 7.66H51.2403C50.9803 7.66 50.7603 7.87 50.7603 8.14V13.45L46.8703 6.84C46.7903 6.71 46.6603 6.63 46.5203 6.6C46.3703 6.59 46.2203 6.63 46.1203 6.73L45.2003 7.62C45.0903 7.72 45.0603 7.86 45.0803 8L43.5803 9.68L43.3903 9.51L15.0903 41.24C14.6303 41.37 14.1003 41.43 14.5103 42.8L18.2903 45.64C14.1403 46.91 16.5103 49.28 16.5103 49.28C16.7003 50.02 17.4703 48.89 17.7703 48.98M24.0103 37.72L23.6903 37.53L20.5603 42.81C19.6703 42.53 18.7803 42.25 17.9603 42L25.5403 33.51C25.5403 33.51 25.8503 33.8 26.1803 34.04L24.0003 37.73L24.0103 37.72ZM57.0403 8.65V11.6H51.7403V8.65H57.0403ZM52.1103 15.74L51.7403 15.11V12.45H57.0403V15.74H52.1103Z" fill="#343A40"/>
<path d="M22.1895 53.18C22.1895 53.18 12.2295 53.18 11.7695 53.18C11.3095 53.18 12.0995 43.76 12.4995 43.76C12.8995 43.76 22.7595 43.73 22.7595 43.73L22.1895 53.18Z" fill="#343A40"/>
<path d="M36.0394 53.18C35.5494 53.19 22.1094 53.18 22.1094 53.18L22.6794 43.73C22.6794 43.73 34.7594 44.64 34.9794 44.63C35.1994 44.62 36.5294 53.17 36.0394 53.18Z" fill="#343A40"/>
<path d="M13.1699 45.27C13.1699 45.27 12.7399 50.5 12.5699 51.99C12.3999 53.48 14.0499 48.17 14.1899 46.41C14.3399 44.64 13.2599 44.37 13.1699 45.28V45.27Z" fill="#343A40"/>
<path d="M38.0898 55.38C38.0598 54.71 37.9298 53.95 37.5398 53.95C37.1498 53.95 33.2998 53.94 27.4398 53.94L27.4098 50.14L24.0798 48.43V53.94C20.1998 53.94 14.7598 53.96 14.6298 53.99C14.4298 54.04 14.3398 54.86 14.2898 55.53C13.4998 56.31 13.0098 57.4 13.0098 58.6C13.0098 60.99 14.9398 62.92 17.3198 62.92C19.6998 62.92 21.5398 61.06 21.6198 58.75L25.7698 58.6L30.9198 58.76C30.9998 61.06 32.8898 62.92 35.2198 62.92C37.5498 62.92 39.5298 60.98 39.5298 58.6C39.5298 57.32 38.9698 56.16 38.0698 55.37L38.0898 55.38ZM17.4298 60.47C16.3798 60.47 15.5198 59.61 15.5198 58.56C15.5198 57.51 16.3798 56.64 17.4298 56.64C18.4798 56.64 19.3498 57.5 19.3498 58.56C19.3498 59.62 18.4998 60.47 17.4298 60.47ZM35.3298 60.47C34.2798 60.47 33.4198 59.61 33.4198 58.56C33.4198 57.51 34.2798 56.64 35.3298 56.64C36.3798 56.64 37.2398 57.5 37.2398 58.56C37.2398 59.62 36.3898 60.47 35.3298 60.47Z" fill="#343A40"/>
</svg>
