<svg width="64" height="64" viewBox="0 0 64 64" fill="none" xmlns="http://www.w3.org/2000/svg">
<path d="M28.9679 44.92C30.7439 44.864 28.9119 43.616 28.9119 43.616C28.9119 43.616 29.5999 43.008 29.1519 42.608C28.7039 42.208 26.5119 40.688 25.0319 40.128C24.9759 40.112 24.9439 40.096 24.8799 40.072C24.7039 39.856 24.4639 39.624 24.1599 39.472C24.1599 39.472 22.9439 39.064 21.4559 38.584L23.8399 34.56L23.6319 34.44L25.3759 31.496C25.4239 31.52 25.4719 31.544 25.5119 31.56C25.9599 31.688 26.0879 31.432 26.0879 31.104C26.0879 30.84 26.4399 29.032 26.5599 28.424L40.2959 13.024L40.1759 12.912L40.2079 12.88H41.4479L44.3759 17.856C44.4239 17.936 44.5119 17.984 44.6079 18.008V18.448C44.6079 18.656 44.7839 18.832 44.9919 18.832H50.0079C50.2159 18.832 50.3919 18.656 50.3919 18.448V10.512C50.3919 10.296 50.2159 10.128 50.0079 10.128H44.9919C44.7839 10.128 44.6079 10.296 44.6079 10.512V14.76L41.4959 9.472C41.4319 9.368 41.3279 9.304 41.2159 9.28C41.0959 9.272 40.9759 9.304 40.8959 9.384L40.1599 10.096C40.0719 10.176 40.0479 10.288 40.0639 10.4L38.8639 11.744L38.7119 11.608L16.0719 36.992C15.7039 37.096 15.2799 37.144 15.6079 38.24L18.6319 40.512C15.3119 41.528 17.2079 43.424 17.2079 43.424C17.3599 44.016 17.9759 43.112 18.2159 43.184M23.2079 34.176L22.9519 34.024L20.4479 38.248C19.7359 38.024 19.0239 37.8 18.3679 37.6L24.4319 30.808C24.4319 30.808 24.6799 31.04 24.9439 31.232L23.1999 34.184L23.2079 34.176ZM49.6319 10.92V13.28H45.3919V10.92H49.6319ZM45.6879 16.592L45.3919 16.088V13.96H49.6319V16.592H45.6879Z" fill="#45C4B0"/>
<path d="M21.7524 46.544C21.7524 46.544 13.7844 46.544 13.4164 46.544C13.0484 46.544 13.6804 39.008 14.0004 39.008C14.3204 39.008 22.2084 38.984 22.2084 38.984L21.7524 46.544Z" fill="#45C4B0"/>
<path d="M32.8325 46.544C32.4405 46.552 21.6885 46.544 21.6885 46.544L22.1445 38.984C22.1445 38.984 31.8085 39.712 31.9845 39.704C32.1605 39.696 33.2245 46.536 32.8325 46.544Z" fill="#45C4B0"/>
<path d="M14.5357 40.216C14.5357 40.216 14.1917 44.4 14.0557 45.592C13.9197 46.784 15.2397 42.536 15.3517 41.128C15.4717 39.712 14.6077 39.496 14.5357 40.224V40.216Z" fill="#45C4B0"/>
<path d="M34.4722 48.304C34.4482 47.768 34.3442 47.16 34.0322 47.16C33.7202 47.16 30.6402 47.152 25.9522 47.152L25.9282 44.112L23.2642 42.744V47.152C20.1602 47.152 15.8082 47.168 15.7042 47.192C15.5442 47.232 15.4722 47.888 15.4322 48.424C14.8002 49.048 14.4082 49.92 14.4082 50.88C14.4082 52.792 15.9522 54.336 17.8562 54.336C19.7602 54.336 21.2322 52.848 21.2962 51L24.6162 50.88L28.7362 51.008C28.8002 52.848 30.3122 54.336 32.1762 54.336C34.0402 54.336 35.6242 52.784 35.6242 50.88C35.6242 49.856 35.1762 48.928 34.4562 48.296L34.4722 48.304ZM17.9442 52.376C17.1042 52.376 16.4162 51.688 16.4162 50.848C16.4162 50.008 17.1042 49.312 17.9442 49.312C18.7842 49.312 19.4802 50 19.4802 50.848C19.4802 51.696 18.8002 52.376 17.9442 52.376ZM32.2642 52.376C31.4242 52.376 30.7362 51.688 30.7362 50.848C30.7362 50.008 31.4242 49.312 32.2642 49.312C33.1042 49.312 33.7922 50 33.7922 50.848C33.7922 51.696 33.1122 52.376 32.2642 52.376Z" fill="#45C4B0"/>
</svg>
