<?xml version="1.0" encoding="UTF-8"?>
<svg id="logo_white_png" xmlns="http://www.w3.org/2000/svg" viewBox="0 0 1192.98 424.89">
  <defs>
    <style>
      .cls-1 {
        font-family: UrbanistRoman-SemiBold, Urbanist;
        font-size: 100px;
        font-variation-settings: 'wght' 600;
        font-weight: 600;
      }

      .cls-1, .cls-2, .cls-3 {
        fill: #fff;
      }

      .cls-2 {
        font-family: UrbanistRoman-ExtraBold, Urbanist;
        font-size: 233.32px;
        font-variation-settings: 'wght' 800;
        font-weight: 700;
      }

      .cls-3 {
        stroke-width: 0px;
      }
    </style>
  </defs>
  <text class="cls-1" transform="translate(413.88 375.55)"><tspan x="0" y="0">PLATAFORMAS</tspan></text>
  <text class="cls-2" transform="translate(399.35 222.67)"><tspan x="0" y="0">SETOS</tspan></text>
  <path id="icon" class="cls-3" d="M287.01,303.58c-3.85-1.81-8.13-2.86-12.66-2.86h-1.6s-.05,0-.08,0-.05,0-.08,0h-64.99l16.61-16.61s.04-.07.06-.09l.63-.63c1.68-1.68,1.68-4.4,0-6.07l-34.34-34.34,35.71-35.71c1.45-1.45,1.57-3.64.51-5.31-.2-.64-.5-1.25-1.01-1.75l-35.02-35.02,34.42-34.42h46.56c2.37,0,4.29-1.92,4.29-4.29V59.39c0-2.37-1.92-4.29-4.29-4.29h-9.06c-2.37,0-4.29,1.92-4.29,4.29v21.16H97.46v-21.16c0-2.37-1.92-4.29-4.29-4.29h-9.06c-2.37,0-4.29,1.92-4.29,4.29v67.08c0,2.37,1.92,4.29,4.29,4.29h47.28l34.42,34.42-35.21,35.21c-.1.1-.14.23-.23.34l-.46.46c-1.68,1.68-1.68,4.4,0,6.07l35.71,35.71-34.34,34.34c-1.68,1.68-1.68,4.4,0,6.07l.19.19c.17.27.29.55.52.79l16.36,16.36h-66.05s-.05,0-.08,0c-20.71,0-37.56,16.85-37.56,37.57s16.85,37.56,37.56,37.56c12.41,0,23.4-6.08,30.24-15.38h129.95c6.84,9.3,17.83,15.38,30.24,15.38,20.71,0,37.56-16.85,37.56-37.56,0-15.63-9.6-29.06-23.22-34.7ZM82.23,357.8c-10.78,0-19.52-8.74-19.52-19.52s8.74-19.52,19.52-19.52,19.52,8.74,19.52,19.52-8.74,19.52-19.52,19.52ZM97.46,113.12v-14.93h160.94v14.93H97.46ZM156.33,130.77h43.9l-21.95,21.95-21.95-21.95ZM151.77,204.18l26.51-26.51,26.32,26.33-26.51,26.51-26.33-26.32ZM178.09,255.45l24.91,24.91-20.36,20.36h-9.34l-20.24-20.24,25.03-25.03ZM235.41,342.83h-115.91c.18-1.49.3-3,.3-4.54,0-7.32-2.14-14.14-5.77-19.92h126.85c-3.64,5.78-5.77,12.6-5.77,19.92,0,1.54.12,3.05.3,4.54ZM272.67,357.8c-10.78,0-19.52-8.74-19.52-19.52s8.74-19.52,19.52-19.52,19.52,8.74,19.52,19.52-8.74,19.52-19.52,19.52Z"/>
</svg>