<?xml version="1.0" encoding="UTF-8"?>
<svg id="logo_default_alt_svg" xmlns="http://www.w3.org/2000/svg" viewBox="0 0 1192.98 424.89">
  <defs>
    <style>
      .cls-1 {
        fill: #52baac;
      }

      .cls-1, .cls-2 {
        stroke-width: 0px;
      }

      .cls-2 {
        fill: #fff;
      }
    </style>
  </defs>
  <g>
    <path class="cls-2" d="M419.88,375.55v-70h24.1c3.77,0,7.18.93,10.23,2.8,3.05,1.87,5.48,4.38,7.3,7.55,1.82,3.17,2.72,6.67,2.72,10.5s-.92,7.43-2.77,10.58c-1.85,3.15-4.31,5.66-7.38,7.53-3.07,1.87-6.43,2.8-10.1,2.8h-13.7v28.25h-10.4ZM430.28,336.9h12.65c2,0,3.83-.5,5.48-1.5,1.65-1,2.97-2.33,3.95-4,.98-1.67,1.48-3.55,1.48-5.65s-.49-3.99-1.48-5.67-2.3-3.02-3.95-4c-1.65-.98-3.48-1.48-5.48-1.48h-12.65v22.3Z"/>
    <path class="cls-2" d="M474.23,375.55v-70h10.4v59.6h30.15v10.4h-40.55Z"/>
    <path class="cls-2" d="M549.23,305.55h12.15l25.45,70h-11l-4.85-13.3h-31.35l-4.8,13.3h-11.05l25.45-70ZM543.48,351.85h23.65l-11.85-32.5-11.8,32.5Z"/>
    <path class="cls-2" d="M649.78,305.55v10.4h-22.3v59.6h-10.4v-59.6h-22.25v-10.4h54.95Z"/>
    <path class="cls-2" d="M683.23,305.55h12.15l25.45,70h-11l-4.85-13.3h-31.35l-4.8,13.3h-11.05l25.45-70ZM677.48,351.85h23.65l-11.85-32.5-11.8,32.5Z"/>
    <path class="cls-2" d="M730.83,375.55v-70h41.25v10.4h-30.85v16.9h26.05v10.4h-26.05v32.3h-10.4Z"/>
    <path class="cls-2" d="M811.58,376.85c-4.73,0-9.18-.94-13.35-2.83-4.17-1.88-7.83-4.49-11-7.82-3.17-3.33-5.65-7.19-7.45-11.58-1.8-4.38-2.7-9.08-2.7-14.08s.9-9.69,2.7-14.08c1.8-4.38,4.28-8.24,7.45-11.58,3.17-3.33,6.83-5.94,11-7.82,4.17-1.88,8.62-2.83,13.35-2.83s9.23.94,13.4,2.83c4.17,1.88,7.83,4.49,11,7.82,3.17,3.33,5.64,7.19,7.42,11.58,1.78,4.38,2.67,9.08,2.67,14.08s-.89,9.69-2.67,14.08c-1.78,4.38-4.26,8.24-7.42,11.58-3.17,3.33-6.83,5.94-11,7.82-4.17,1.88-8.63,2.83-13.4,2.83ZM811.58,366.45c3.33,0,6.45-.68,9.35-2.05,2.9-1.37,5.46-3.24,7.68-5.62,2.22-2.38,3.95-5.13,5.2-8.25,1.25-3.12,1.88-6.44,1.88-9.97s-.62-6.87-1.88-10c-1.25-3.13-2.98-5.89-5.2-8.28-2.22-2.38-4.78-4.25-7.68-5.6-2.9-1.35-6.02-2.03-9.35-2.03s-6.45.68-9.35,2.05c-2.9,1.37-5.46,3.24-7.68,5.62s-3.95,5.13-5.2,8.25-1.88,6.44-1.88,9.97.62,6.91,1.88,10.03,2.98,5.87,5.2,8.25,4.78,4.25,7.68,5.6c2.9,1.35,6.02,2.03,9.35,2.03Z"/>
    <path class="cls-2" d="M856.08,375.55v-70h25.75c3.8,0,7.22.93,10.25,2.8,3.03,1.87,5.44,4.38,7.22,7.53,1.78,3.15,2.68,6.66,2.68,10.52,0,3.27-.61,6.25-1.83,8.95-1.22,2.7-2.92,5-5.1,6.9-2.18,1.9-4.67,3.27-7.47,4.1l16.9,29.2h-12.05l-16.4-28.25h-9.55v28.25h-10.4ZM866.48,336.9h14.25c2,0,3.82-.5,5.47-1.5s2.96-2.33,3.92-4c.97-1.67,1.45-3.55,1.45-5.65s-.48-3.99-1.45-5.67-2.27-3.02-3.92-4-3.47-1.48-5.47-1.48h-14.25v22.3Z"/>
    <path class="cls-2" d="M915.03,375.55l13.55-70h8.4l17.95,47.15,17.85-47.15h8.4l13.6,70h-10.6l-9.05-46.85-16.75,44.2h-7l-16.7-44.2-9.05,46.85h-10.6Z"/>
    <path class="cls-2" d="M1030.23,305.55h12.15l25.45,70h-11l-4.85-13.3h-31.35l-4.8,13.3h-11.05l25.45-70ZM1024.48,351.85h23.65l-11.85-32.5-11.8,32.5Z"/>
    <path class="cls-2" d="M1102.78,376.85c-3.83,0-7.52-.6-11.05-1.8-3.53-1.2-6.62-2.92-9.25-5.17-2.63-2.25-4.52-4.92-5.65-8.03l9.75-3.65c.57,1.6,1.66,3.02,3.28,4.27,1.62,1.25,3.55,2.23,5.8,2.92,2.25.7,4.62,1.05,7.12,1.05,2.67,0,5.17-.43,7.52-1.3,2.35-.87,4.25-2.07,5.7-3.6s2.17-3.33,2.17-5.4-.76-3.88-2.27-5.25c-1.52-1.37-3.45-2.45-5.8-3.25-2.35-.8-4.79-1.4-7.33-1.8-4.9-.8-9.29-1.97-13.17-3.5-3.88-1.53-6.95-3.68-9.2-6.45-2.25-2.77-3.38-6.37-3.38-10.8,0-4.17,1.19-7.8,3.58-10.9,2.38-3.1,5.53-5.51,9.45-7.23,3.92-1.72,8.16-2.58,12.73-2.58,3.77,0,7.41.59,10.92,1.78,3.52,1.18,6.62,2.9,9.3,5.15,2.68,2.25,4.61,4.97,5.78,8.17l-9.85,3.55c-.57-1.63-1.65-3.06-3.25-4.28-1.6-1.22-3.52-2.17-5.77-2.88-2.25-.7-4.62-1.05-7.12-1.05-2.67-.03-5.16.39-7.48,1.28-2.32.88-4.21,2.09-5.67,3.62s-2.2,3.32-2.2,5.35c0,2.5.68,4.4,2.05,5.7,1.37,1.3,3.21,2.26,5.52,2.88,2.32.62,4.91,1.17,7.78,1.67,4.6.73,8.86,1.95,12.77,3.65s7.07,3.96,9.45,6.77c2.38,2.82,3.58,6.28,3.58,10.38s-1.19,7.76-3.58,10.88c-2.38,3.12-5.53,5.53-9.45,7.25-3.92,1.72-8.17,2.58-12.77,2.58Z"/>
  </g>
  <g>
    <path class="cls-2" d="M472.73,225.7c-9.18,0-17.95-1.44-26.31-4.32-8.36-2.88-15.67-7.04-21.93-12.48-6.26-5.44-10.75-11.9-13.47-19.37l30.22-11.2c.93,2.64,2.88,5.11,5.83,7.41,2.95,2.29,6.65,4.16,11.08,5.6,4.43,1.44,9.29,2.16,14.58,2.16s9.82-.76,14.29-2.28c4.47-1.52,8.09-3.63,10.85-6.36,2.76-2.72,4.14-5.91,4.14-9.57s-1.44-6.69-4.32-9.1c-2.88-2.41-6.57-4.33-11.08-5.78-4.51-1.44-9.14-2.55-13.88-3.32-11.74-1.71-22.26-4.49-31.56-8.34-9.29-3.85-16.62-9.18-21.99-15.98-5.37-6.8-8.05-15.46-8.05-25.96s2.86-18.94,8.57-26.48c5.72-7.54,13.26-13.42,22.63-17.62,9.37-4.2,19.5-6.3,30.39-6.3,9.02,0,17.73,1.44,26.13,4.32,8.4,2.88,15.73,7.04,21.99,12.48,6.26,5.45,10.75,11.98,13.47,19.6l-30.22,10.97c-.93-2.64-2.88-5.09-5.83-7.35-2.96-2.25-6.65-4.08-11.08-5.48-4.43-1.4-9.26-2.1-14.47-2.1-4.98-.08-9.7.66-14.17,2.22-4.47,1.56-8.13,3.69-10.97,6.42-2.84,2.72-4.26,5.83-4.26,9.33,0,4.59,1.34,8.05,4.02,10.38,2.68,2.33,6.24,4.01,10.67,5.02,4.43,1.01,9.33,1.91,14.7,2.68,11.04,1.63,21.23,4.53,30.57,8.69,9.33,4.16,16.82,9.68,22.46,16.57,5.64,6.88,8.46,15.26,8.46,25.14s-2.84,18.94-8.52,26.48c-5.68,7.54-13.18,13.42-22.52,17.62-9.33,4.2-19.48,6.3-30.45,6.3Z"/>
    <path class="cls-2" d="M559.99,222.67V59.34h103.36v32.2h-71.16v27.53h55.53v32.2h-55.53v39.2h71.16v32.2h-103.36Z"/>
    <path class="cls-2" d="M812.68,59.34v32.2h-48.06v131.13h-32.2V91.54h-48.06v-32.2h128.33Z"/>
    <path class="cls-2" d="M911.84,225.7c-11.04,0-21.43-2.2-31.15-6.59-9.72-4.39-18.28-10.48-25.67-18.26-7.39-7.78-13.18-16.78-17.38-27.01-4.2-10.23-6.3-21.17-6.3-32.84s2.1-22.61,6.3-32.84c4.2-10.23,9.99-19.23,17.38-27.01,7.39-7.78,15.94-13.86,25.67-18.26,9.72-4.39,20.1-6.59,31.15-6.59s21.54,2.2,31.27,6.59c9.72,4.39,18.28,10.48,25.67,18.26,7.39,7.78,13.16,16.78,17.32,27.01,4.16,10.23,6.24,21.17,6.24,32.84s-2.08,22.61-6.24,32.84c-4.16,10.23-9.94,19.23-17.32,27.01-7.39,7.78-15.94,13.86-25.67,18.26-9.72,4.39-20.14,6.59-31.27,6.59ZM911.84,193.5c6.61,0,12.83-1.38,18.67-4.14,5.83-2.76,10.97-6.55,15.4-11.38,4.43-4.82,7.91-10.38,10.44-16.68,2.53-6.3,3.79-13.07,3.79-20.3s-1.26-14.02-3.79-20.36c-2.53-6.34-6.01-11.9-10.44-16.68-4.43-4.78-9.57-8.55-15.4-11.32-5.83-2.76-12.06-4.14-18.67-4.14s-12.83,1.38-18.67,4.14c-5.83,2.76-10.97,6.55-15.4,11.38-4.43,4.82-7.91,10.38-10.44,16.68-2.53,6.3-3.79,13.07-3.79,20.3s1.26,14.02,3.79,20.36c2.53,6.34,6.01,11.9,10.44,16.68,4.43,4.78,9.57,8.56,15.4,11.32,5.83,2.76,12.05,4.14,18.67,4.14Z"/>
    <path class="cls-2" d="M1075.05,225.7c-9.18,0-17.95-1.44-26.31-4.32-8.36-2.88-15.67-7.04-21.93-12.48-6.26-5.44-10.75-11.9-13.47-19.37l30.22-11.2c.93,2.64,2.88,5.11,5.83,7.41,2.95,2.29,6.65,4.16,11.08,5.6,4.43,1.44,9.29,2.16,14.58,2.16s9.82-.76,14.29-2.28c4.47-1.52,8.09-3.63,10.85-6.36,2.76-2.72,4.14-5.91,4.14-9.57s-1.44-6.69-4.32-9.1c-2.88-2.41-6.57-4.33-11.08-5.78-4.51-1.44-9.14-2.55-13.88-3.32-11.74-1.71-22.26-4.49-31.56-8.34-9.29-3.85-16.62-9.18-21.99-15.98-5.37-6.8-8.05-15.46-8.05-25.96s2.86-18.94,8.57-26.48c5.72-7.54,13.26-13.42,22.63-17.62,9.37-4.2,19.5-6.3,30.39-6.3,9.02,0,17.73,1.44,26.13,4.32,8.4,2.88,15.73,7.04,21.99,12.48,6.26,5.45,10.75,11.98,13.47,19.6l-30.22,10.97c-.93-2.64-2.88-5.09-5.83-7.35-2.96-2.25-6.65-4.08-11.08-5.48-4.43-1.4-9.26-2.1-14.47-2.1-4.98-.08-9.7.66-14.17,2.22-4.47,1.56-8.13,3.69-10.97,6.42-2.84,2.72-4.26,5.83-4.26,9.33,0,4.59,1.34,8.05,4.02,10.38,2.68,2.33,6.24,4.01,10.67,5.02,4.43,1.01,9.33,1.91,14.7,2.68,11.04,1.63,21.23,4.53,30.57,8.69,9.33,4.16,16.82,9.68,22.46,16.57,5.64,6.88,8.46,15.26,8.46,25.14s-2.84,18.94-8.52,26.48c-5.68,7.54-13.18,13.42-22.52,17.62-9.33,4.2-19.48,6.3-30.45,6.3Z"/>
  </g>
  <path id="icon" class="cls-1" d="M287.01,303.58c-3.85-1.81-8.13-2.86-12.66-2.86h-1.6s-.05,0-.08,0-.05,0-.08,0h-64.99l16.61-16.61s.04-.07.06-.09l.63-.63c1.68-1.68,1.68-4.4,0-6.07l-34.34-34.34,35.71-35.71c1.45-1.45,1.57-3.64.51-5.31-.2-.64-.5-1.25-1.01-1.75l-35.02-35.02,34.42-34.42h46.56c2.37,0,4.29-1.92,4.29-4.29V59.39c0-2.37-1.92-4.29-4.29-4.29h-9.06c-2.37,0-4.29,1.92-4.29,4.29v21.16H97.46v-21.16c0-2.37-1.92-4.29-4.29-4.29h-9.06c-2.37,0-4.29,1.92-4.29,4.29v67.08c0,2.37,1.92,4.29,4.29,4.29h47.28l34.42,34.42-35.21,35.21c-.1.1-.14.23-.23.34l-.46.46c-1.68,1.68-1.68,4.4,0,6.07l35.71,35.71-34.34,34.34c-1.68,1.68-1.68,4.4,0,6.07l.19.19c.17.27.29.55.52.79l16.36,16.36h-66.05s-.05,0-.08,0c-20.71,0-37.56,16.85-37.56,37.57s16.85,37.56,37.56,37.56c12.41,0,23.4-6.08,30.24-15.38h129.95c6.84,9.3,17.83,15.38,30.24,15.38,20.71,0,37.56-16.85,37.56-37.56,0-15.63-9.6-29.06-23.22-34.7ZM82.23,357.8c-10.78,0-19.52-8.74-19.52-19.52s8.74-19.52,19.52-19.52,19.52,8.74,19.52,19.52-8.74,19.52-19.52,19.52ZM97.46,113.12v-14.93h160.94v14.93H97.46ZM156.33,130.77h43.9l-21.95,21.95-21.95-21.95ZM151.77,204.18l26.51-26.51,26.32,26.33-26.51,26.51-26.33-26.32ZM178.09,255.45l24.91,24.91-20.36,20.36h-9.34l-20.24-20.24,25.03-25.03ZM235.41,342.83h-115.91c.18-1.49.3-3,.3-4.54,0-7.32-2.14-14.14-5.77-19.92h126.85c-3.64,5.78-5.77,12.6-5.77,19.92,0,1.54.12,3.05.3,4.54ZM272.67,357.8c-10.78,0-19.52-8.74-19.52-19.52s8.74-19.52,19.52-19.52,19.52,8.74,19.52,19.52-8.74,19.52-19.52,19.52Z"/>
</svg>